<svg xmlns="http://www.w3.org/2000/svg" viewBox="0 0 192 192">
  <rect width="192" height="192" rx="42" fill="#4f46e5"/>
  <rect x="36" y="36" width="120" height="120" rx="18" fill="#f8fafc"/>
  <text x="96" y="58" fill="#0f172a" font-family="Arial, sans-serif" font-size="21" font-weight="700" text-anchor="middle">G</text>
  <g stroke="#0f172a" stroke-linecap="round">
    <path d="M57 75v57M73 75v57M89 75v57M105 75v57M121 75v57M137 75v57" stroke-width="3"/>
    <path d="M49 75h96M49 89h96M49 103h96M49 117h96M49 131h96" stroke-width="4"/>
  </g>
  <g fill="#fbbf24" stroke="#0f172a" stroke-width="2">
    <circle cx="57" cy="117" r="7"/>
    <circle cx="73" cy="103" r="7"/>
    <circle cx="137" cy="117" r="7"/>
  </g>
  <g fill="#0f172a" font-family="Arial, sans-serif" font-size="13" font-weight="700" text-anchor="middle">
    <text x="57" y="69">●</text><text x="73" y="69">○</text><text x="89" y="69">○</text>
    <text x="105" y="69">○</text><text x="121" y="69">○</text><text x="137" y="69">○</text>
  </g>
</svg>
